<?xml version="1.0" encoding="UTF-8" standalone="no"?>
<svg
   xmlns:dc="http://purl.org/dc/elements/1.1/"
   xmlns:cc="http://creativecommons.org/ns#"
   xmlns:rdf="http://www.w3.org/1999/02/22-rdf-syntax-ns#"
   xmlns:svg="http://www.w3.org/2000/svg"
   xmlns="http://www.w3.org/2000/svg"
   xmlns:xlink="http://www.w3.org/1999/xlink"
   xmlns:sodipodi="http://sodipodi.sourceforge.net/DTD/sodipodi-0.dtd"
   xmlns:inkscape="http://www.inkscape.org/namespaces/inkscape"
   width="166.6875mm"
   height="105.83333mm"
   viewBox="0 0 166.6875 105.83333"
   version="1.1"
   id="svg8"
   sodipodi:docname="logo.svg"
   inkscape:version="1.0.1 (3bc2e813f5, 2020-09-07, custom)">
  <defs
     id="defs2">
    <linearGradient
       inkscape:collect="always"
       id="linearGradient305">
      <stop
         style="stop-color:#ff2a2a;stop-opacity:1;"
         offset="0"
         id="stop301" />
      <stop
         style="stop-color:#ff2a2a;stop-opacity:0;"
         offset="1"
         id="stop303" />
    </linearGradient>
    <linearGradient
       inkscape:collect="always"
       id="linearGradient238">
      <stop
         style="stop-color:#ff5555;stop-opacity:1;"
         offset="0"
         id="stop234" />
      <stop
         style="stop-color:#ff5555;stop-opacity:0;"
         offset="1"
         id="stop236" />
    </linearGradient>
    <linearGradient
       inkscape:collect="always"
       xlink:href="#linearGradient238"
       id="linearGradient240-6"
       x1="190"
       y1="380"
       x2="570"
       y2="380"
       gradientUnits="userSpaceOnUse"
       gradientTransform="translate(-191.35427,-190.47347)" />
    <linearGradient
       inkscape:collect="always"
       xlink:href="#linearGradient305"
       id="linearGradient307"
       x1="190"
       y1="380"
       x2="570"
       y2="380"
       gradientUnits="userSpaceOnUse" />
  </defs>
  <sodipodi:namedview
     id="base"
     pagecolor="#ffffff"
     bordercolor="#666666"
     borderopacity="1.0"
     inkscape:pageopacity="0.0"
     inkscape:pageshadow="2"
     inkscape:zoom="0.98994949"
     inkscape:cx="528.88339"
     inkscape:cy="233.70578"
     inkscape:document-units="mm"
     inkscape:current-layer="layer1"
     inkscape:document-rotation="0"
     showgrid="true"
     units="mm"
     width="200mm"
     inkscape:window-width="2556"
     inkscape:window-height="1040"
     inkscape:window-x="1920"
     inkscape:window-y="38"
     inkscape:window-maximized="0">
    <inkscape:grid
       type="xygrid"
       id="grid18"
       originx="-13.229166"
       originy="-47.625002" />
  </sodipodi:namedview>
  <metadata
     id="metadata5">
    <rdf:RDF>
      <cc:Work
         rdf:about="">
        <dc:format>image/svg+xml</dc:format>
        <dc:type
           rdf:resource="http://purl.org/dc/dcmitype/StillImage" />
        <dc:title></dc:title>
      </cc:Work>
    </rdf:RDF>
  </metadata>
  <g
     inkscape:label="Layer 1"
     inkscape:groupmode="layer"
     id="layer1"
     transform="translate(-13.229166,-47.625)">
    <path
       style="fill:none;stroke:#000000;stroke-width:0.264583px;stroke-linecap:butt;stroke-linejoin:miter;stroke-opacity:1"
       d="M 76.729166,50.270833 50.270833,100.54167 76.729166,150.8125 H 124.35417 L 150.8125,100.54167 124.35417,50.270833 Z"
       id="path32"
       sodipodi:nodetypes="ccccccc" />
    <path
       style="fill:none;stroke:#000000;stroke-width:0.264583px;stroke-linecap:butt;stroke-linejoin:miter;stroke-opacity:1"
       d="M 23.8125,150.8125 H 15.875 L 68.791666,50.270824 h 7.9375 L 50.270833,100.54167 76.729166,150.8125 h -7.9375 L 46.302083,108.47917 Z"
       id="path61"
       sodipodi:nodetypes="ccccccccc" />
    <path
       style="fill:#b3b3b3;stroke-width:0.714286"
       d="m 70.394699,552.32032 c 4.873448,-9.33477 49.667711,-94.49601 99.542801,-189.24717 l 90.68199,-172.27485 13.74991,0.0509 c 7.56245,0.028 13.74932,0.19998 13.7486,0.38222 -7.2e-4,0.18223 -22.24,42.58259 -49.42063,94.22301 -27.18061,51.64043 -49.40994,94.2341 -49.3985,94.65262 0.0162,0.59079 86.14343,164.71735 97.02627,184.896 l 2.41287,4.47386 -14.0934,-0.085 -14.0934,-0.085 -42.5328,-80.20312 c -23.39304,-44.11171 -42.69649,-80.30353 -42.89656,-80.42626 -0.20008,-0.12273 -19.60086,35.99015 -43.11285,80.25084 l -42.749068,80.47401 -13.863023,-0.0548 -13.863023,-0.0548 z"
       id="path145"
       transform="scale(0.26458333)" />
    <path
       style="fill:none;stroke:#000000;stroke-width:0.264583px;stroke-linecap:butt;stroke-linejoin:miter;stroke-opacity:1"
       d="m 150.8125,100.54167 26.45833,50.27083 h -52.91666 z"
       id="path202" />
    <path
       style="fill:#99ff55;fill-opacity:1;stroke-width:0.252538"
       d="m 471.28275,569.09713 c 0.22269,-0.57352 98.41039,-187.18706 98.61153,-187.41905 0.0864,-0.0997 22.3797,42.03642 49.54063,93.63576 38.7372,73.59151 49.29974,93.84948 48.99492,93.96775 -0.21373,0.0829 -41.81136,0.11743 -92.43918,0.0767 -50.62781,-0.0407 -94.93597,-0.0196 -98.46257,0.047 -5.96906,0.11271 -6.40047,0.0914 -6.24533,-0.30815 z"
       id="path206"
       transform="scale(0.26458333)" />
    <path
       style="font-variation-settings:normal;opacity:1;vector-effect:none;fill:#ffffff;fill-opacity:1;stroke-width:0.714286;stroke-linecap:butt;stroke-linejoin:miter;stroke-miterlimit:4;stroke-dasharray:none;stroke-dashoffset:0;stroke-opacity:1;stop-color:#000000;stop-opacity:1"
       d="m 240.94297,474.86114 c -27.28099,-51.9076 -49.59591,-94.60811 -49.5887,-94.89004 0.007,-0.28193 22.34336,-42.97305 49.63591,-94.86918 l 49.62281,-94.35657 46.07114,0.16487 c 25.33913,0.0907 65.52127,0.0295 89.29364,-0.13594 l 43.22251,-0.30081 49.89769,94.77759 49.89769,94.77759 -2.88199,5.34579 c -1.5851,2.94018 -23.8649,45.28098 -49.51068,94.09065 -25.64577,48.80968 -46.82131,88.94413 -47.05676,89.18766 -0.23544,0.24354 -40.60708,0.47498 -89.71477,0.51431 l -89.28669,0.0715 z"
       id="path208"
       transform="scale(0.26458333)" />
    <path
       style="font-variation-settings:normal;opacity:1;vector-effect:none;fill:url(#linearGradient307);fill-opacity:1;stroke-width:0.255102;stroke-linecap:butt;stroke-linejoin:miter;stroke-miterlimit:4;stroke-dasharray:none;stroke-dashoffset:0;stroke-opacity:1;stop-color:#000000;stop-opacity:1"
       d="m 290.37149,569.15334 c -0.0558,-0.0984 -22.47053,-42.68715 -49.81056,-94.64158 l -49.70914,-94.46261 0.85041,-1.6904 c 0.46773,-0.92972 22.87322,-43.5379 49.78998,-94.68485 l 48.93957,-92.99444 67.67896,0.0371 c 37.22342,0.0204 77.53299,0.0367 89.57681,0.0363 l 21.89786,-8.8e-4 49.80213,94.61623 49.80211,94.61623 -49.71866,94.49272 c -27.34528,51.971 -49.82214,94.59686 -49.94859,94.72411 -0.26653,0.26827 -178.9988,0.22045 -179.15088,-0.0479 z"
       id="path299"
       transform="scale(0.26458333)" />
    <rect
       style="fill:none;stroke-width:0.188988;stop-color:#000000"
       id="rect109"
       width="156.10417"
       height="111.125"
       x="13.229166"
       y="42.333332"
       ry="2.5431327e-06" />
    <rect
       style="fill:none;stroke-width:0.188988;stop-color:#000000"
       id="rect113"
       width="166.6875"
       height="105.83333"
       x="13.229166"
       y="47.625"
       ry="1.2715664e-06" />
  </g>
</svg>
